<?xml version="1.0" encoding="UTF-8"?><svg xmlns="http://www.w3.org/2000/svg" xmlns:xlink="http://www.w3.org/1999/xlink" height="350.8" preserveAspectRatio="xMidYMid meet" version="1.0" viewBox="0.0 0.0 666.0 350.8" width="666.0" zoomAndPan="magnify"><defs><clipPath id="a"><path d="M 0 268 L 666 268 L 666 350.761719 L 0 350.761719 Z M 0 268"/></clipPath></defs><g><g clip-path="url(#a)" id="change1_2"><path d="M 666 281.894531 C 666 319.921875 516.917969 350.761719 333.003906 350.761719 C 149.082031 350.761719 0 319.921875 0 281.894531 C 0 277.171875 2.308594 272.546875 6.707031 268.089844 C 37.65625 299.5 171.980469 323.136719 333.003906 323.136719 C 494.019531 323.136719 628.34375 299.5 659.296875 268.089844 C 663.691406 272.546875 666 277.171875 666 281.894531" fill="#f0e7ad"/></g><g id="change2_1"><path d="M 659.296875 268.089844 C 628.34375 299.5 494.019531 323.136719 333.003906 323.136719 C 171.980469 323.136719 37.65625 299.5 6.707031 268.089844 C 8.867188 265.882812 11.546875 263.722656 14.714844 261.59375 L 14.726562 261.585938 L 18.789062 258.191406 C 64.363281 284.984375 187.828125 304.203125 333.003906 304.203125 C 478.175781 304.203125 601.636719 284.984375 647.210938 258.191406 L 651.277344 261.585938 L 651.289062 261.59375 C 654.457031 263.722656 657.132812 265.882812 659.296875 268.089844" fill="#daa34d"/></g><g id="change1_1"><path d="M 647.210938 258.191406 C 601.636719 284.984375 478.175781 304.203125 333.003906 304.203125 C 187.828125 304.203125 64.363281 284.984375 18.789062 258.191406 L 281.660156 38.339844 C 281.660156 38.339844 281.671875 38.339844 281.683594 38.332031 C 282.488281 37.925781 303.359375 27.625 333.003906 27.625 C 362.640625 27.625 383.511719 37.925781 384.316406 38.332031 C 384.328125 38.339844 384.339844 38.339844 384.339844 38.339844 L 647.210938 258.191406" fill="#f0e7ad"/></g><g id="change2_2"><path d="M 384.316406 38.332031 C 383.511719 37.925781 362.640625 27.625 333.003906 27.625 C 303.359375 27.625 282.488281 37.925781 281.683594 38.332031 L 294.929688 27.246094 C 294.929688 27.246094 324.042969 0 333.003906 0 C 341.957031 0 371.070312 27.246094 371.070312 27.246094 L 384.316406 38.332031" fill="#daa34d"/></g><g id="change3_1"><path d="M 89.375 254.035156 C 104.441406 236.191406 120.300781 219.171875 136.394531 202.394531 C 152.523438 185.65625 168.964844 169.238281 185.671875 153.101562 C 202.371094 136.953125 219.359375 121.109375 236.679688 105.605469 C 254.019531 90.125 271.617188 74.914062 290.046875 60.5625 C 290.839844 59.949219 291.980469 60.089844 292.597656 60.882812 C 293.132812 61.570312 293.09375 62.527344 292.554688 63.171875 C 277.503906 81.03125 261.625 98.03125 245.492188 114.765625 C 229.332031 131.472656 212.847656 147.839844 196.066406 163.90625 C 179.296875 179.976562 162.261719 195.777344 144.914062 211.25 C 127.53125 226.683594 109.914062 241.875 91.5 256.242188 C 90.832031 256.765625 89.863281 256.648438 89.339844 255.976562 C 88.882812 255.390625 88.914062 254.582031 89.375 254.035156" fill="#f1eecc"/></g></g></svg>